<?xml version="1.0" encoding="UTF-8" standalone="no"?>
<!-- Created with Inkscape (http://www.inkscape.org/) -->

<svg
   xmlns:dc="http://purl.org/dc/elements/1.1/"
   xmlns:cc="http://creativecommons.org/ns#"
   xmlns:rdf="http://www.w3.org/1999/02/22-rdf-syntax-ns#"
   xmlns:svg="http://www.w3.org/2000/svg"
   xmlns="http://www.w3.org/2000/svg"
   xmlns:sodipodi="http://sodipodi.sourceforge.net/DTD/sodipodi-0.dtd"
   xmlns:inkscape="http://www.inkscape.org/namespaces/inkscape"
   width="351.49057"
   height="256.90729"
   id="svg3728"
   version="1.1"
   inkscape:version="0.47 r22583"
   sodipodi:docname="hsv.svg">
  <defs
     id="defs3730">
    <inkscape:perspective
       sodipodi:type="inkscape:persp3d"
       inkscape:vp_x="0 : 526.18109 : 1"
       inkscape:vp_y="0 : 1000 : 0"
       inkscape:vp_z="744.09448 : 526.18109 : 1"
       inkscape:persp3d-origin="372.04724 : 350.78739 : 1"
       id="perspective3736" />
    <inkscape:perspective
       id="perspective3547"
       inkscape:persp3d-origin="0.5 : 0.33333333 : 1"
       inkscape:vp_z="1 : 0.5 : 1"
       inkscape:vp_y="0 : 1000 : 0"
       inkscape:vp_x="0 : 0.5 : 1"
       sodipodi:type="inkscape:persp3d" />
  </defs>
  <sodipodi:namedview
     id="base"
     pagecolor="#ffffff"
     bordercolor="#666666"
     borderopacity="1.0"
     inkscape:pageopacity="0.0"
     inkscape:pageshadow="2"
     inkscape:zoom="1.4"
     inkscape:cx="229.65853"
     inkscape:cy="151.26973"
     inkscape:document-units="px"
     inkscape:current-layer="layer1"
     showgrid="false"
     inkscape:window-width="1280"
     inkscape:window-height="966"
     inkscape:window-x="0"
     inkscape:window-y="0"
     inkscape:window-maximized="1" />
  <metadata
     id="metadata3733">
    <rdf:RDF>
      <cc:Work
         rdf:about="">
        <dc:format>image/svg+xml</dc:format>
        <dc:type
           rdf:resource="http://purl.org/dc/dcmitype/StillImage" />
        <dc:title></dc:title>
      </cc:Work>
    </rdf:RDF>
  </metadata>
  <g
     inkscape:label="Layer 1"
     inkscape:groupmode="layer"
     id="layer1"
     transform="translate(-145.34147,-398.51007)">
    <g
       id="g4413">
      <line
         id="line10"
         y2="648.2074"
         x2="362.55148"
         y1="405.72006"
         x1="222.55147"
         style="fill:none;stroke:#bcbec0;stroke-width:1.39999998;stroke-linecap:round;stroke-linejoin:round;stroke-dasharray:2.8, 2.8" />
      <line
         id="line12"
         y2="405.72006"
         x2="362.55148"
         y1="648.2074"
         x1="222.55147"
         style="fill:none;stroke:#bcbec0;stroke-width:1.39999998;stroke-linecap:round;stroke-linejoin:round;stroke-dasharray:2.8, 2.8" />
      <polygon
         transform="translate(-1281.304,577.07307)"
         id="polygon14"
         points="1503.8555,71.1343 1433.8555,-50.1099 1503.8555,-171.353 1643.8555,-171.353 1713.8555,-50.1099 1643.8555,71.1343 "
         style="fill:none;stroke:#bcbec0;stroke-width:1.39999998;stroke-linecap:round;stroke-linejoin:round;stroke-dasharray:2.8, 2.8" />
      <line
         id="line18"
         y2="526.9632"
         x2="482.53"
         y1="526.9632"
         x1="292.55148"
         style="fill:none;stroke:#666666;stroke-width:1.39999998;stroke-linecap:round;stroke-linejoin:round;stroke-dasharray:5.6, 2.8" />
      <line
         id="line20"
         y2="526.9632"
         x2="292.55148"
         y1="526.9632"
         x1="152.55147"
         style="fill:none;stroke:#bcbec0;stroke-width:1.39999998;stroke-linecap:round;stroke-linejoin:round;stroke-dasharray:2.8, 2.8" />
      <g
         transform="translate(-1281.304,577.07307)"
         id="g22">
        <circle
           id="circle24"
           r="7"
           cy="-50.109901"
           cx="1713.8555"
           d="m 1720.8555,-50.109901 c 0,3.865993 -3.134,7 -7,7 -3.866,0 -7,-3.134007 -7,-7 0,-3.865994 3.134,-7 7,-7 3.866,0 7,3.134006 7,7 z"
           sodipodi:cx="1713.8555"
           sodipodi:cy="-50.109901"
           sodipodi:rx="7"
           sodipodi:ry="7"
           style="fill:#ff0000" />
        <circle
           id="circle26"
           r="7"
           cy="-50.109901"
           cx="1713.8555"
           d="m 1720.8555,-50.109901 c 0,3.865993 -3.134,7 -7,7 -3.866,0 -7,-3.134007 -7,-7 0,-3.865994 3.134,-7 7,-7 3.866,0 7,3.134006 7,7 z"
           sodipodi:cx="1713.8555"
           sodipodi:cy="-50.109901"
           sodipodi:rx="7"
           sodipodi:ry="7"
           style="fill:none;stroke:#000000;stroke-width:0.41999999" />
      </g>
      <g
         transform="translate(-1281.304,577.07307)"
         id="g28">
        <circle
           id="circle30"
           r="7"
           cy="-50.109901"
           cx="1433.8555"
           d="m 1440.8555,-50.109901 c 0,3.865993 -3.134,7 -7,7 -3.866,0 -7,-3.134007 -7,-7 0,-3.865994 3.134,-7 7,-7 3.866,0 7,3.134006 7,7 z"
           sodipodi:cx="1433.8555"
           sodipodi:cy="-50.109901"
           sodipodi:rx="7"
           sodipodi:ry="7"
           style="fill:#00ffff" />
        <circle
           id="circle32"
           r="7"
           cy="-50.109901"
           cx="1433.8555"
           d="m 1440.8555,-50.109901 c 0,3.865993 -3.134,7 -7,7 -3.866,0 -7,-3.134007 -7,-7 0,-3.865994 3.134,-7 7,-7 3.866,0 7,3.134006 7,7 z"
           sodipodi:cx="1433.8555"
           sodipodi:cy="-50.109901"
           sodipodi:rx="7"
           sodipodi:ry="7"
           style="fill:none;stroke:#000000;stroke-width:0.41999999" />
      </g>
      <g
         transform="translate(-1281.304,577.07307)"
         id="g34">
        <circle
           id="circle36"
           r="7"
           cy="71.1343"
           cx="1503.8555"
           d="m 1510.8555,71.1343 c 0,3.865993 -3.134,7 -7,7 -3.866,0 -7,-3.134007 -7,-7 0,-3.865993 3.134,-7 7,-7 3.866,0 7,3.134007 7,7 z"
           sodipodi:cx="1503.8555"
           sodipodi:cy="71.1343"
           sodipodi:rx="7"
           sodipodi:ry="7"
           style="fill:#0000ff" />
        <circle
           id="circle38"
           r="7"
           cy="71.1343"
           cx="1503.8555"
           d="m 1510.8555,71.1343 c 0,3.865993 -3.134,7 -7,7 -3.866,0 -7,-3.134007 -7,-7 0,-3.865993 3.134,-7 7,-7 3.866,0 7,3.134007 7,7 z"
           sodipodi:cx="1503.8555"
           sodipodi:cy="71.1343"
           sodipodi:rx="7"
           sodipodi:ry="7"
           style="fill:none;stroke:#000000;stroke-width:0.41999999" />
      </g>
      <g
         transform="translate(-1281.304,577.07307)"
         id="g40">
        <circle
           id="circle42"
           r="7"
           cy="-50.109901"
           cx="1573.8555"
           d="m 1580.8555,-50.109901 c 0,3.865993 -3.134,7 -7,7 -3.866,0 -7,-3.134007 -7,-7 0,-3.865994 3.134,-7 7,-7 3.866,0 7,3.134006 7,7 z"
           sodipodi:cx="1573.8555"
           sodipodi:cy="-50.109901"
           sodipodi:rx="7"
           sodipodi:ry="7"
           style="fill:#7f7f7f" />
        <circle
           id="circle44"
           r="7"
           cy="-50.109901"
           cx="1573.8555"
           d="m 1580.8555,-50.109901 c 0,3.865993 -3.134,7 -7,7 -3.866,0 -7,-3.134007 -7,-7 0,-3.865994 3.134,-7 7,-7 3.866,0 7,3.134006 7,7 z"
           sodipodi:cx="1573.8555"
           sodipodi:cy="-50.109901"
           sodipodi:rx="7"
           sodipodi:ry="7"
           style="fill:none;stroke:#000000;stroke-width:0.41999999" />
      </g>
      <g
         transform="translate(-1281.304,577.07307)"
         id="g46">
        <circle
           id="circle48"
           r="7"
           cy="71.1343"
           cx="1643.8555"
           d="m 1650.8555,71.1343 c 0,3.865993 -3.134,7 -7,7 -3.866,0 -7,-3.134007 -7,-7 0,-3.865993 3.134,-7 7,-7 3.866,0 7,3.134007 7,7 z"
           sodipodi:cx="1643.8555"
           sodipodi:cy="71.1343"
           sodipodi:rx="7"
           sodipodi:ry="7"
           style="fill:#ff00ff" />
        <circle
           id="circle50"
           r="7"
           cy="71.1343"
           cx="1643.8555"
           d="m 1650.8555,71.1343 c 0,3.865993 -3.134,7 -7,7 -3.866,0 -7,-3.134007 -7,-7 0,-3.865993 3.134,-7 7,-7 3.866,0 7,3.134007 7,7 z"
           sodipodi:cx="1643.8555"
           sodipodi:cy="71.1343"
           sodipodi:rx="7"
           sodipodi:ry="7"
           style="fill:none;stroke:#000000;stroke-width:0.41999999" />
      </g>
      <g
         transform="translate(-1281.304,577.07307)"
         id="g52">
        <circle
           id="circle54"
           r="7"
           cy="-171.353"
           cx="1643.8555"
           d="m 1650.8555,-171.353 c 0,3.866 -3.134,7 -7,7 -3.866,0 -7,-3.134 -7,-7 0,-3.86599 3.134,-7 7,-7 3.866,0 7,3.13401 7,7 z"
           sodipodi:cx="1643.8555"
           sodipodi:cy="-171.353"
           sodipodi:rx="7"
           sodipodi:ry="7"
           style="fill:#ffff00" />
        <circle
           id="circle56"
           r="7"
           cy="-171.353"
           cx="1643.8555"
           d="m 1650.8555,-171.353 c 0,3.866 -3.134,7 -7,7 -3.866,0 -7,-3.134 -7,-7 0,-3.86599 3.134,-7 7,-7 3.866,0 7,3.13401 7,7 z"
           sodipodi:cx="1643.8555"
           sodipodi:cy="-171.353"
           sodipodi:rx="7"
           sodipodi:ry="7"
           style="fill:none;stroke:#000000;stroke-width:0.41999999" />
      </g>
      <g
         transform="translate(-1281.304,577.07307)"
         id="g58">
        <circle
           id="circle60"
           r="7"
           cy="-171.353"
           cx="1503.8555"
           d="m 1510.8555,-171.353 c 0,3.866 -3.134,7 -7,7 -3.866,0 -7,-3.134 -7,-7 0,-3.86599 3.134,-7 7,-7 3.866,0 7,3.13401 7,7 z"
           sodipodi:cx="1503.8555"
           sodipodi:cy="-171.353"
           sodipodi:rx="7"
           sodipodi:ry="7"
           style="fill:#00ff00" />
        <circle
           id="circle62"
           r="7"
           cy="-171.353"
           cx="1503.8555"
           d="m 1510.8555,-171.353 c 0,3.866 -3.134,7 -7,7 -3.866,0 -7,-3.134 -7,-7 0,-3.86599 3.134,-7 7,-7 3.866,0 7,3.13401 7,7 z"
           sodipodi:cx="1503.8555"
           sodipodi:cy="-171.353"
           sodipodi:rx="7"
           sodipodi:ry="7"
           style="fill:none;stroke:#000000;stroke-width:0.41999999" />
      </g>
      <g
         transform="translate(-1281.304,577.07307)"
         id="g64">
        <g
           id="g66">
          <line
             id="line68"
             y2="-50.109901"
             x2="1734.2549"
             y1="-77.1763"
             x1="1718.6279"
             style="fill:none;stroke:#58595b;stroke-width:1.39999998;stroke-linecap:round;stroke-linejoin:round" />
          <polygon
             id="polygon70"
             points="1722.2773,-76.8809 1713.9443,-85.2139 1716.9941,-73.8306 "
             style="fill:#58595b" />
        </g>
      </g>
      <g
         transform="translate(-1281.304,577.07307)"
         id="g80">
        <path
           id="path82"
           d="m 1499.0439,-18.2119 c 0.6221,-0.1509 1.5293,-0.252 2.4531,-0.252 1.0918,0 2.1338,0.269 2.7715,0.8735 0.5381,0.4873 0.8232,1.1592 0.8232,2.0498 0,1.2598 -0.6211,2.335 -1.3604,2.9565 -0.874,0.7393 -2.1504,1.0752 -3.4277,1.0752 -0.4365,0 -0.8057,-0.0332 -1.1592,-0.084 l -0.8564,4.5361 h -1.3779 l 2.1338,-11.1551 z m 0.3194,5.4433 c 0.3867,0.084 0.7227,0.1177 1.126,0.1177 1.915,0 3.1914,-1.1929 3.1914,-2.7891 0,-1.3608 -0.957,-1.8984 -2.251,-1.8984 -0.5547,0 -0.9746,0.0508 -1.2266,0.1177 l -0.8398,4.4521 z" />
      </g>
      <g
         transform="translate(-1281.304,577.07307)"
         id="g84">
        <path
           id="path86"
           d="m 1699.1221,-42.5229 c 0,2.6509 -0.9951,4.1138 -2.71,4.1138 -1.5234,0 -2.5664,-1.4272 -2.5908,-4.0059 0,-2.6265 1.1396,-4.0537 2.7227,-4.0537 1.6308,-1e-4 2.5781,1.4633 2.5781,3.9458 z m -4.2334,0.1201 c 0,2.0269 0.624,3.1782 1.583,3.1782 1.0674,0 1.583,-1.2593 1.583,-3.25 0,-1.9189 -0.4795,-3.1787 -1.583,-3.1787 -0.9112,0 -1.583,1.1274 -1.583,3.2505 z"
           style="fill:#58595b" />
        <path
           id="path88"
           d="m 1704.0322,-45.2095 c 0,0.9717 -0.7803,1.6074 -1.6074,1.6074 -0.9355,0 -1.5713,-0.708 -1.5713,-1.5474 0,-0.9233 0.708,-1.6191 1.6074,-1.6191 0.9834,0 1.5713,0.7437 1.5713,1.5591 z m -2.5312,0.0601 c 0,0.5518 0.3965,0.9834 0.9355,0.9834 0.5518,0 0.9473,-0.4438 0.9473,-1.0312 0,-0.4438 -0.2637,-1.0073 -0.959,-1.0073 -0.6113,-10e-5 -0.9238,0.5395 -0.9238,1.0551 z"
           style="fill:#58595b" />
      </g>
      <g
         transform="translate(-1281.304,577.07307)"
         id="g90">
        <path
           id="path92"
           d="m 1516.5146,-166.6875 h -0.023 l -1.3555,0.7319 -0.2041,-0.8037 1.7031,-0.9116 h 0.8994 v 7.7959 h -1.0195 v -6.8125 z"
           style="fill:#58595b" />
        <path
           id="path94"
           d="m 1520.3809,-159.875 v -0.6475 l 0.8271,-0.8037 c 1.9912,-1.895 2.9023,-2.9023 2.9023,-4.0776 0,-0.7915 -0.3721,-1.5234 -1.5352,-1.5234 -0.707,0 -1.2949,0.3599 -1.6553,0.6597 l -0.3359,-0.7437 c 0.5283,-0.4438 1.3076,-0.7915 2.1953,-0.7915 1.6787,0 2.3867,1.1514 2.3867,2.2666 0,1.4395 -1.0439,2.603 -2.6865,4.186 l -0.6113,0.5757 v 0.0239 h 3.4893 v 0.8755 h -4.9765 z"
           style="fill:#58595b" />
        <path
           id="path96"
           d="m 1531.7295,-163.8569 c 0,2.6509 -0.9951,4.1138 -2.71,4.1138 -1.5234,0 -2.5664,-1.4272 -2.5908,-4.0059 0,-2.6265 1.1396,-4.0537 2.7227,-4.0537 1.6308,0 2.5781,1.4633 2.5781,3.9458 z m -4.2334,0.1201 c 0,2.0269 0.624,3.1782 1.583,3.1782 1.0674,0 1.583,-1.2593 1.583,-3.25 0,-1.9189 -0.4795,-3.1787 -1.583,-3.1787 -0.9111,0 -1.583,1.1274 -1.583,3.2505 z"
           style="fill:#58595b" />
        <path
           id="path98"
           d="m 1536.6396,-166.5435 c 0,0.9717 -0.7803,1.6074 -1.6074,1.6074 -0.9355,0 -1.5713,-0.708 -1.5713,-1.5474 0,-0.9233 0.708,-1.6191 1.6074,-1.6191 0.9835,1e-4 1.5713,0.7437 1.5713,1.5591 z m -2.5312,0.0601 c 0,0.5518 0.3965,0.9834 0.9355,0.9834 0.5518,0 0.9473,-0.4438 0.9473,-1.0312 0,-0.4438 -0.2637,-1.0073 -0.959,-1.0073 -0.6113,-1e-4 -0.9238,0.5395 -0.9238,1.0551 z"
           style="fill:#58595b" />
      </g>
      <g
         transform="translate(-1281.304,577.07307)"
         id="g100">
        <path
           id="path102"
           d="m 1514.2246,68.125 v -0.6475 l 0.8271,-0.8037 c 1.9912,-1.895 2.9023,-2.9023 2.9023,-4.0776 0,-0.7915 -0.3721,-1.5234 -1.5352,-1.5234 -0.707,0 -1.2949,0.3599 -1.6553,0.6597 l -0.3359,-0.7437 c 0.5283,-0.4438 1.3076,-0.7915 2.1953,-0.7915 1.6787,0 2.3867,1.1514 2.3867,2.2666 0,1.4395 -1.0439,2.603 -2.6865,4.186 l -0.6113,0.5757 v 0.0239 h 3.4893 v 0.8755 h -4.9765 z"
           style="fill:#58595b" />
        <path
           id="path104"
           d="m 1523.6426,68.125 v -2.1348 h -3.6221 v -0.6836 l 3.4785,-4.9775 h 1.1387 v 4.8457 h 1.0918 v 0.8154 h -1.0918 v 2.1348 h -0.9951 z m 0,-2.9502 v -2.6025 c 0,-0.4082 0.012,-0.8159 0.036,-1.2236 h -0.036 c -0.2393,0.4561 -0.4316,0.7915 -0.6475,1.1514 l -1.9072,2.6504 v 0.0244 h 2.5547 z"
           style="fill:#58595b" />
        <path
           id="path106"
           d="m 1531.7295,64.1431 c 0,2.6509 -0.9951,4.1138 -2.71,4.1138 -1.5234,0 -2.5664,-1.4272 -2.5908,-4.0059 0,-2.6265 1.1396,-4.0537 2.7227,-4.0537 1.6308,0 2.5781,1.4633 2.5781,3.9458 z m -4.2334,0.1201 c 0,2.0269 0.624,3.1782 1.583,3.1782 1.0674,0 1.583,-1.2593 1.583,-3.25 0,-1.9189 -0.4795,-3.1787 -1.583,-3.1787 -0.9111,0 -1.583,1.1274 -1.583,3.2505 z"
           style="fill:#58595b" />
        <path
           id="path108"
           d="m 1536.6396,61.4565 c 0,0.9717 -0.7803,1.6074 -1.6074,1.6074 -0.9355,0 -1.5713,-0.708 -1.5713,-1.5474 0,-0.9233 0.708,-1.6191 1.6074,-1.6191 0.9835,1e-4 1.5713,0.7437 1.5713,1.5591 z m -2.5312,0.0601 c 0,0.5518 0.3965,0.9834 0.9355,0.9834 0.5518,0 0.9473,-0.4438 0.9473,-1.0312 0,-0.4438 -0.2637,-1.0073 -0.959,-1.0073 -0.6113,-1e-4 -0.9238,0.5395 -0.9238,1.0551 z"
           style="fill:#58595b" />
      </g>
      <g
         transform="translate(-1281.304,577.07307)"
         id="g110">
        <path
           id="path112"
           d="m 1578.127,-35.5127 c 0,1.9653 -0.7217,4.1328 -2.0664,5.4766 -0.9912,0.9912 -2.3184,1.5791 -3.8799,1.5791 -2.9238,0 -4.2842,-2.2007 -4.2842,-4.603 0,-1.999 0.7725,-4.1997 2.1504,-5.5605 0.9746,-0.9409 2.3682,-1.5288 3.7969,-1.5288 3.0576,-1e-4 4.2832,2.2172 4.2832,4.6366 z m -7.0557,-2.3354 c -1.0918,1.0923 -1.7139,3.0913 -1.7139,4.6704 0,1.8481 0.8232,3.5449 3.041,3.5449 0.958,0 1.8818,-0.4199 2.5869,-1.1255 1.0586,-1.0752 1.6807,-3.1079 1.6807,-4.6875 0,-1.6128 -0.5215,-3.5278 -3.0078,-3.5278 -1.0078,0 -1.8809,0.437 -2.5869,1.1255 z" />
      </g>
      <g
         transform="translate(-1281.304,577.07307)"
         id="g114">
        <path
           id="path116"
           d="m 1449.3447,-2.1113 c 0.6221,-0.1509 1.5293,-0.252 2.4531,-0.252 1.0918,0 2.1338,0.269 2.7715,0.8735 0.5381,0.4873 0.8232,1.1592 0.8232,2.0498 0,1.2598 -0.6211,2.335 -1.3604,2.9565 -0.874,0.7393 -2.1504,1.0752 -3.4277,1.0752 -0.4365,0 -0.8057,-0.0332 -1.1592,-0.084 l -0.8564,4.5361 h -1.3779 l 2.1338,-11.1551 z m 0.3194,5.4433 c 0.3867,0.084 0.7227,0.1177 1.126,0.1177 1.915,0 3.1914,-1.1929 3.1914,-2.7891 0,-1.3608 -0.957,-1.8984 -2.251,-1.8984 -0.5547,0 -0.9746,0.0508 -1.2266,0.1177 l -0.8398,4.4521 z" />
        <path
           id="path118"
           d="m 1459.6934,-2.5815 c -0.6211,1.4111 -1.6299,3.2256 -2.2002,3.9985 l -0.9746,0.1006 c 0.5205,-0.9912 1.2598,-2.7217 1.6465,-3.9312 l 1.5283,-0.1679 z" />
      </g>
      <g
         transform="translate(-1281.304,577.07307)"
         id="g132">
        <circle
           id="circle134"
           r="3.5"
           cy="-9.6948004"
           cx="1457.1875"
           d="m 1460.6875,-9.6948004 c 0,1.9329966 -1.567,3.5 -3.5,3.5 -1.933,0 -3.5,-1.5670034 -3.5,-3.5 0,-1.9329966 1.567,-3.4999996 3.5,-3.4999996 1.933,0 3.5,1.567003 3.5,3.4999996 z"
           sodipodi:cx="1457.1875"
           sodipodi:cy="-9.6948004"
           sodipodi:rx="3.5"
           sodipodi:ry="3.5"
           style="fill:#00b3ff" />
        <circle
           id="circle136"
           r="3.5"
           cy="-9.6948004"
           cx="1457.1875"
           d="m 1460.6875,-9.6948004 c 0,1.9329966 -1.567,3.5 -3.5,3.5 -1.933,0 -3.5,-1.5670034 -3.5,-3.5 0,-1.9329966 1.567,-3.4999996 3.5,-3.4999996 1.933,0 3.5,1.567003 3.5,3.4999996 z"
           sodipodi:cx="1457.1875"
           sodipodi:cy="-9.6948004"
           sodipodi:rx="3.5"
           sodipodi:ry="3.5"
           style="fill:none;stroke:#000000;stroke-width:0.41999999" />
      </g>
      <g
         transform="translate(-1281.304,577.07307)"
         id="g152">
        <g
           id="g154">
          <line
             id="line156"
             y2="-39.839401"
             x2="1729.2568"
             y1="-39.839401"
             x1="1750.2568"
             style="fill:none;stroke:#58595b;stroke-width:1.39999998;stroke-linecap:round;stroke-linejoin:round" />
          <polygon
             id="polygon158"
             points="1748.5928,-37.4292 1757.6992,-39.8691 1748.5928,-42.3096 "
             style="fill:#58595b" />
        </g>
      </g>
      <g
         transform="translate(-1281.304,577.07307)"
         id="g160">
        <g
           id="g162">
          <line
             id="line164"
             y2="-25.8608"
             x2="1503.8555"
             y1="-12.1401"
             x1="1464.249"
             style="fill:none;stroke:#666666;stroke-width:1.39999998;stroke-linecap:round;stroke-linejoin:round;stroke-dasharray:1.4, 2.8" />
          <polygon
             id="polygon166"
             points="1465.0332,-14.9624 1457.2266,-9.6763 1466.6299,-10.3511 "
             style="fill:#666666" />
        </g>
      </g>
      <g
         transform="translate(-1281.304,577.07307)"
         id="g170">
        <circle
           id="circle172"
           r="3.5"
           cy="-25.8608"
           cx="1503.8555"
           d="m 1507.3555,-25.8608 c 0,1.932997 -1.567,3.5 -3.5,3.5 -1.933,0 -3.5,-1.567003 -3.5,-3.5 0,-1.932996 1.567,-3.5 3.5,-3.5 1.933,0 3.5,1.567004 3.5,3.5 z"
           sodipodi:cx="1503.8555"
           sodipodi:cy="-25.8608"
           sodipodi:rx="3.5"
           sodipodi:ry="3.5"
           style="fill:#339ecc" />
        <circle
           id="circle174"
           r="3.5"
           cy="-25.8608"
           cx="1503.8555"
           d="m 1507.3555,-25.8608 c 0,1.932997 -1.567,3.5 -3.5,3.5 -1.933,0 -3.5,-1.567003 -3.5,-3.5 0,-1.932996 1.567,-3.5 3.5,-3.5 1.933,0 3.5,1.567004 3.5,3.5 z"
           sodipodi:cx="1503.8555"
           sodipodi:cy="-25.8608"
           sodipodi:rx="3.5"
           sodipodi:ry="3.5"
           style="fill:none;stroke:#000000;stroke-width:0.41999999" />
      </g>
      <g
         transform="translate(-1281.304,577.07307)"
         id="g176">
        <g
           id="g178">
          <line
             id="line180"
             y2="-50.109901"
             x2="1573.8555"
             y1="-28.9214"
             x1="1512.6846"
             style="fill:none;stroke:#58595b;stroke-width:1.39999998;stroke-linecap:round;stroke-linejoin:round" />
          <polygon
             id="polygon182"
             points="1513.6641,-32.4492 1503.9062,-25.8418 1515.6611,-26.6851 "
             style="fill:#58595b" />
        </g>
      </g>
      <text
         id="text4363"
         y="510.21933"
         x="450"
         style="font-size:40px;font-style:normal;font-weight:normal;fill:#000000;fill-opacity:1;stroke:none;font-family:Bitstream Vera Sans"
         xml:space="preserve"><tspan
           style="font-size:14px"
           y="510.21933"
           x="450"
           id="tspan4365"
           sodipodi:role="line">Hue</tspan></text>
      <text
         id="text4367"
         y="555.21936"
         x="425"
         style="font-size:14px;font-style:normal;font-weight:normal;fill:#000000;fill-opacity:1;stroke:none;font-family:Bitstream Vera Sans"
         xml:space="preserve"><tspan
           y="555.21936"
           x="425"
           id="tspan4369"
           sodipodi:role="line">Saturation</tspan></text>
    </g>
  </g>
</svg>
